ISO-10303-21;
HEADER;
/* Generated by software containing ST-Developer
 * from STEP Tools, Inc. (www.steptools.com) 
 */
/* OPTION: using custom renumber hook */

FILE_DESCRIPTION(
/* description */ ('STEP AP242 Edition 2',
'CAx-IF Rec.Pracs.---Representation and Presentation of Product Manufa
cturing Information (PMI)---4.0---2014-10-13',
'CAx-IF Rec.Pracs.---3D Tessellated Geometry---0.4---2014-09-14','2;1',
'CAx-IF Rec.Pracs.---User Defined Attributes---1.5---2016-08-15'),
/* implementation_level */ '2;1');

FILE_NAME(
/* name */ 'Part Studio 1 - Part 1',
/* time_stamp */ '2026-08-17T17:45:00Z',
/* author */ (''),
/* organization */ (''),
/* preprocessor_version */ 'ST-DEVELOPER v20',
/* originating_system */ 'ONSHAPE BY PTC INC, 1.219',
/* authorisation */ '  ');

FILE_SCHEMA (('AP242_MANAGED_MODEL_BASED_3D_ENGINEERING_MIM_LF { 1 0 10303 442 3 1 4 }'));
ENDSEC;

DATA;
#10=SHAPE_REPRESENTATION_RELATIONSHIP('','',#829,#11);
#11=ADVANCED_BREP_SHAPE_REPRESENTATION('',(#827),#1382);
#12=CONICAL_SURFACE('',#883,0.002,0.463647609000806);
#13=CONICAL_SURFACE('',#884,0.002,0.463647609000806);
#14=CONICAL_SURFACE('',#887,0.002,0.463647609000806);
#15=CONICAL_SURFACE('',#888,0.002,0.463647609000806);
#16=CYLINDRICAL_SURFACE('',#872,0.002);
#17=CYLINDRICAL_SURFACE('',#874,0.002);
#18=CYLINDRICAL_SURFACE('',#876,0.002);
#19=CYLINDRICAL_SURFACE('',#879,0.002);
#20=CYLINDRICAL_SURFACE('',#898,0.0033);
#21=CYLINDRICAL_SURFACE('',#902,0.0035);
#22=CYLINDRICAL_SURFACE('',#903,0.0004);
#23=CYLINDRICAL_SURFACE('',#904,0.0004);
#24=CYLINDRICAL_SURFACE('',#905,0.0004);
#25=CYLINDRICAL_SURFACE('',#906,0.0004);
#26=ELLIPSE('',#845,0.0064140470843299,0.0033);
#27=ELLIPSE('',#847,0.0038484282505979,0.0033);
#28=ELLIPSE('',#877,0.00428486998674686,0.002);
#29=ELLIPSE('',#880,0.00428486998674686,0.002);
#30=ELLIPSE('',#895,0.0064140470843299,0.0033);
#31=ELLIPSE('',#897,0.0038484282505979,0.0033);
#32=CIRCLE('',#832,0.0004);
#33=CIRCLE('',#833,0.0004);
#34=CIRCLE('',#834,0.0004);
#35=CIRCLE('',#835,0.0004);
#36=CIRCLE('',#836,0.0035);
#37=CIRCLE('',#839,0.0033);
#38=CIRCLE('',#842,0.0033);
#39=CIRCLE('',#849,0.002);
#40=CIRCLE('',#850,0.002);
#41=CIRCLE('',#851,0.0033);
#42=CIRCLE('',#853,0.0033);
#43=CIRCLE('',#854,0.002);
#44=CIRCLE('',#855,0.002);
#45=CIRCLE('',#861,0.0004);
#46=CIRCLE('',#862,0.0004);
#47=CIRCLE('',#863,0.0004);
#48=CIRCLE('',#864,0.0004);
#49=CIRCLE('',#871,0.0033);
#50=CIRCLE('',#873,0.002);
#51=CIRCLE('',#875,0.002);
#52=CIRCLE('',#878,0.002);
#53=CIRCLE('',#881,0.002);
#54=CIRCLE('',#892,0.0033);
#55=CIRCLE('',#899,0.0033);
#56=CIRCLE('',#901,0.0035);
#57=ORIENTED_EDGE('',*,*,#285,.T.);
#58=ORIENTED_EDGE('',*,*,#286,.T.);
#59=ORIENTED_EDGE('',*,*,#287,.F.);
#60=ORIENTED_EDGE('',*,*,#288,.T.);
#61=ORIENTED_EDGE('',*,*,#289,.F.);
#62=ORIENTED_EDGE('',*,*,#290,.T.);
#63=ORIENTED_EDGE('',*,*,#291,.T.);
#64=ORIENTED_EDGE('',*,*,#292,.T.);
#65=ORIENTED_EDGE('',*,*,#293,.F.);
#66=ORIENTED_EDGE('',*,*,#294,.F.);
#67=ORIENTED_EDGE('',*,*,#295,.T.);
#68=ORIENTED_EDGE('',*,*,#296,.T.);
#69=ORIENTED_EDGE('',*,*,#297,.F.);
#70=ORIENTED_EDGE('',*,*,#298,.F.);
#71=ORIENTED_EDGE('',*,*,#299,.F.);
#72=ORIENTED_EDGE('',*,*,#300,.F.);
#73=ORIENTED_EDGE('',*,*,#295,.F.);
#74=ORIENTED_EDGE('',*,*,#301,.F.);
#75=ORIENTED_EDGE('',*,*,#302,.T.);
#76=ORIENTED_EDGE('',*,*,#303,.F.);
#77=ORIENTED_EDGE('',*,*,#304,.F.);
#78=ORIENTED_EDGE('',*,*,#305,.F.);
#79=ORIENTED_EDGE('',*,*,#306,.T.);
#80=ORIENTED_EDGE('',*,*,#307,.T.);
#81=ORIENTED_EDGE('',*,*,#308,.T.);
#82=ORIENTED_EDGE('',*,*,#309,.T.);
#83=ORIENTED_EDGE('',*,*,#310,.T.);
#84=ORIENTED_EDGE('',*,*,#311,.T.);
#85=ORIENTED_EDGE('',*,*,#312,.T.);
#86=ORIENTED_EDGE('',*,*,#313,.F.);
#87=ORIENTED_EDGE('',*,*,#314,.F.);
#88=ORIENTED_EDGE('',*,*,#315,.F.);
#89=ORIENTED_EDGE('',*,*,#306,.F.);
#90=ORIENTED_EDGE('',*,*,#316,.F.);
#91=ORIENTED_EDGE('',*,*,#309,.F.);
#92=ORIENTED_EDGE('',*,*,#317,.F.);
#93=ORIENTED_EDGE('',*,*,#318,.F.);
#94=ORIENTED_EDGE('',*,*,#319,.T.);
#95=ORIENTED_EDGE('',*,*,#320,.T.);
#96=ORIENTED_EDGE('',*,*,#321,.T.);
#97=ORIENTED_EDGE('',*,*,#322,.F.);
#98=ORIENTED_EDGE('',*,*,#323,.T.);
#99=ORIENTED_EDGE('',*,*,#324,.F.);
#100=ORIENTED_EDGE('',*,*,#304,.T.);
#101=ORIENTED_EDGE('',*,*,#325,.T.);
#102=ORIENTED_EDGE('',*,*,#326,.F.);
#103=ORIENTED_EDGE('',*,*,#297,.T.);
#104=ORIENTED_EDGE('',*,*,#327,.F.);
#105=ORIENTED_EDGE('',*,*,#328,.T.);
#106=ORIENTED_EDGE('',*,*,#329,.T.);
#107=ORIENTED_EDGE('',*,*,#330,.T.);
#108=ORIENTED_EDGE('',*,*,#331,.T.);
#109=ORIENTED_EDGE('',*,*,#332,.T.);
#110=ORIENTED_EDGE('',*,*,#333,.T.);
#111=ORIENTED_EDGE('',*,*,#334,.T.);
#112=ORIENTED_EDGE('',*,*,#307,.F.);
#113=ORIENTED_EDGE('',*,*,#315,.T.);
#114=ORIENTED_EDGE('',*,*,#335,.F.);
#115=ORIENTED_EDGE('',*,*,#322,.T.);
#116=ORIENTED_EDGE('',*,*,#336,.T.);
#117=ORIENTED_EDGE('',*,*,#337,.T.);
#118=ORIENTED_EDGE('',*,*,#338,.T.);
#119=ORIENTED_EDGE('',*,*,#327,.T.);
#120=ORIENTED_EDGE('',*,*,#296,.F.);
#121=ORIENTED_EDGE('',*,*,#300,.T.);
#122=ORIENTED_EDGE('',*,*,#339,.T.);
#123=ORIENTED_EDGE('',*,*,#340,.T.);
#124=ORIENTED_EDGE('',*,*,#341,.T.);
#125=ORIENTED_EDGE('',*,*,#329,.F.);
#126=ORIENTED_EDGE('',*,*,#342,.T.);
#127=ORIENTED_EDGE('',*,*,#317,.T.);
#128=ORIENTED_EDGE('',*,*,#312,.F.);
#129=ORIENTED_EDGE('',*,*,#343,.F.);
#130=ORIENTED_EDGE('',*,*,#344,.T.);
#131=ORIENTED_EDGE('',*,*,#331,.F.);
#132=ORIENTED_EDGE('',*,*,#345,.T.);
#133=ORIENTED_EDGE('',*,*,#346,.T.);
#134=ORIENTED_EDGE('',*,*,#347,.T.);
#135=ORIENTED_EDGE('',*,*,#325,.F.);
#136=ORIENTED_EDGE('',*,*,#303,.T.);
#137=ORIENTED_EDGE('',*,*,#348,.T.);
#138=ORIENTED_EDGE('',*,*,#349,.T.);
#139=ORIENTED_EDGE('',*,*,#350,.T.);
#140=ORIENTED_EDGE('',*,*,#351,.T.);
#141=ORIENTED_EDGE('',*,*,#352,.T.);
#142=ORIENTED_EDGE('',*,*,#353,.T.);
#143=ORIENTED_EDGE('',*,*,#354,.T.);
#144=ORIENTED_EDGE('',*,*,#355,.T.);
#145=ORIENTED_EDGE('',*,*,#356,.T.);
#146=ORIENTED_EDGE('',*,*,#357,.F.);
#147=ORIENTED_EDGE('',*,*,#358,.T.);
#148=ORIENTED_EDGE('',*,*,#359,.F.);
#149=ORIENTED_EDGE('',*,*,#360,.T.);
#150=ORIENTED_EDGE('',*,*,#361,.T.);
#151=ORIENTED_EDGE('',*,*,#362,.T.);
#152=ORIENTED_EDGE('',*,*,#363,.T.);
#153=ORIENTED_EDGE('',*,*,#364,.T.);
#154=ORIENTED_EDGE('',*,*,#291,.F.);
#155=ORIENTED_EDGE('',*,*,#365,.T.);
#156=ORIENTED_EDGE('',*,*,#359,.T.);
#157=ORIENTED_EDGE('',*,*,#366,.T.);
#158=ORIENTED_EDGE('',*,*,#289,.T.);
#159=ORIENTED_EDGE('',*,*,#367,.T.);
#160=ORIENTED_EDGE('',*,*,#361,.F.);
#161=ORIENTED_EDGE('',*,*,#368,.T.);
#162=ORIENTED_EDGE('',*,*,#287,.T.);
#163=ORIENTED_EDGE('',*,*,#369,.T.);
#164=ORIENTED_EDGE('',*,*,#363,.F.);
#165=ORIENTED_EDGE('',*,*,#370,.T.);
#166=ORIENTED_EDGE('',*,*,#357,.T.);
#167=ORIENTED_EDGE('',*,*,#371,.T.);
#168=ORIENTED_EDGE('',*,*,#285,.F.);
#169=ORIENTED_EDGE('',*,*,#372,.T.);
#170=ORIENTED_EDGE('',*,*,#373,.F.);
#171=ORIENTED_EDGE('',*,*,#332,.F.);
#172=ORIENTED_EDGE('',*,*,#344,.F.);
#173=ORIENTED_EDGE('',*,*,#374,.T.);
#174=ORIENTED_EDGE('',*,*,#375,.F.);
#175=ORIENTED_EDGE('',*,*,#374,.F.);
#176=ORIENTED_EDGE('',*,*,#343,.T.);
#177=ORIENTED_EDGE('',*,*,#311,.F.);
#178=ORIENTED_EDGE('',*,*,#341,.F.);
#179=ORIENTED_EDGE('',*,*,#376,.T.);
#180=ORIENTED_EDGE('',*,*,#345,.F.);
#181=ORIENTED_EDGE('',*,*,#330,.F.);
#182=ORIENTED_EDGE('',*,*,#338,.F.);
#183=ORIENTED_EDGE('',*,*,#377,.T.);
#184=ORIENTED_EDGE('',*,*,#339,.F.);
#185=ORIENTED_EDGE('',*,*,#328,.F.);
#186=ORIENTED_EDGE('',*,*,#321,.F.);
#187=ORIENTED_EDGE('',*,*,#378,.T.);
#188=ORIENTED_EDGE('',*,*,#349,.F.);
#189=ORIENTED_EDGE('',*,*,#379,.T.);
#190=ORIENTED_EDGE('',*,*,#336,.F.);
#191=ORIENTED_EDGE('',*,*,#351,.F.);
#192=ORIENTED_EDGE('',*,*,#380,.T.);
#193=ORIENTED_EDGE('',*,*,#319,.F.);
#194=ORIENTED_EDGE('',*,*,#347,.F.);
#195=ORIENTED_EDGE('',*,*,#381,.T.);
#196=ORIENTED_EDGE('',*,*,#382,.F.);
#197=ORIENTED_EDGE('',*,*,#340,.F.);
#198=ORIENTED_EDGE('',*,*,#383,.F.);
#199=ORIENTED_EDGE('',*,*,#356,.F.);
#200=ORIENTED_EDGE('',*,*,#383,.T.);
#201=ORIENTED_EDGE('',*,*,#377,.F.);
#202=ORIENTED_EDGE('',*,*,#384,.F.);
#203=ORIENTED_EDGE('',*,*,#376,.F.);
#204=ORIENTED_EDGE('',*,*,#382,.T.);
#205=ORIENTED_EDGE('',*,*,#385,.F.);
#206=ORIENTED_EDGE('',*,*,#384,.T.);
#207=ORIENTED_EDGE('',*,*,#337,.F.);
#208=ORIENTED_EDGE('',*,*,#386,.F.);
#209=ORIENTED_EDGE('',*,*,#353,.F.);
#210=ORIENTED_EDGE('',*,*,#385,.T.);
#211=ORIENTED_EDGE('',*,*,#355,.F.);
#212=ORIENTED_EDGE('',*,*,#387,.F.);
#213=ORIENTED_EDGE('',*,*,#346,.F.);
#214=ORIENTED_EDGE('',*,*,#386,.T.);
#215=ORIENTED_EDGE('',*,*,#379,.F.);
#216=ORIENTED_EDGE('',*,*,#388,.F.);
#217=ORIENTED_EDGE('',*,*,#381,.F.);
#218=ORIENTED_EDGE('',*,*,#387,.T.);
#219=ORIENTED_EDGE('',*,*,#389,.F.);
#220=ORIENTED_EDGE('',*,*,#388,.T.);
#221=ORIENTED_EDGE('',*,*,#352,.F.);
#222=ORIENTED_EDGE('',*,*,#389,.T.);
#223=ORIENTED_EDGE('',*,*,#354,.F.);
#224=ORIENTED_EDGE('',*,*,#390,.F.);
#225=ORIENTED_EDGE('',*,*,#323,.F.);
#226=ORIENTED_EDGE('',*,*,#335,.T.);
#227=ORIENTED_EDGE('',*,*,#314,.T.);
#228=ORIENTED_EDGE('',*,*,#391,.F.);
#229=ORIENTED_EDGE('',*,*,#318,.T.);
#230=ORIENTED_EDGE('',*,*,#342,.F.);
#231=ORIENTED_EDGE('',*,*,#392,.T.);
#232=ORIENTED_EDGE('',*,*,#299,.T.);
#233=ORIENTED_EDGE('',*,*,#393,.T.);
#234=ORIENTED_EDGE('',*,*,#394,.T.);
#235=ORIENTED_EDGE('',*,*,#333,.F.);
#236=ORIENTED_EDGE('',*,*,#395,.F.);
#237=ORIENTED_EDGE('',*,*,#392,.F.);
#238=ORIENTED_EDGE('',*,*,#348,.F.);
#239=ORIENTED_EDGE('',*,*,#302,.F.);
#240=ORIENTED_EDGE('',*,*,#396,.F.);
#241=ORIENTED_EDGE('',*,*,#308,.F.);
#242=ORIENTED_EDGE('',*,*,#334,.F.);
#243=ORIENTED_EDGE('',*,*,#394,.F.);
#244=ORIENTED_EDGE('',*,*,#316,.T.);
#245=ORIENTED_EDGE('',*,*,#391,.T.);
#246=ORIENTED_EDGE('',*,*,#395,.T.);
#247=ORIENTED_EDGE('',*,*,#301,.T.);
#248=ORIENTED_EDGE('',*,*,#324,.T.);
#249=ORIENTED_EDGE('',*,*,#390,.T.);
#250=ORIENTED_EDGE('',*,*,#313,.T.);
#251=ORIENTED_EDGE('',*,*,#305,.T.);
#252=ORIENTED_EDGE('',*,*,#396,.T.);
#253=ORIENTED_EDGE('',*,*,#393,.F.);
#254=ORIENTED_EDGE('',*,*,#298,.T.);
#255=ORIENTED_EDGE('',*,*,#294,.T.);
#256=ORIENTED_EDGE('',*,*,#326,.T.);
#257=ORIENTED_EDGE('',*,*,#373,.T.);
#258=ORIENTED_EDGE('',*,*,#375,.T.);
#259=ORIENTED_EDGE('',*,*,#310,.F.);
#260=ORIENTED_EDGE('',*,*,#397,.F.);
#261=ORIENTED_EDGE('',*,*,#397,.T.);
#262=ORIENTED_EDGE('',*,*,#398,.F.);
#263=ORIENTED_EDGE('',*,*,#398,.T.);
#264=ORIENTED_EDGE('',*,*,#293,.T.);
#265=ORIENTED_EDGE('',*,*,#286,.F.);
#266=ORIENTED_EDGE('',*,*,#371,.F.);
#267=ORIENTED_EDGE('',*,*,#364,.F.);
#268=ORIENTED_EDGE('',*,*,#369,.F.);
#269=ORIENTED_EDGE('',*,*,#288,.F.);
#270=ORIENTED_EDGE('',*,*,#370,.F.);
#271=ORIENTED_EDGE('',*,*,#362,.F.);
#272=ORIENTED_EDGE('',*,*,#367,.F.);
#273=ORIENTED_EDGE('',*,*,#290,.F.);
#274=ORIENTED_EDGE('',*,*,#368,.F.);
#275=ORIENTED_EDGE('',*,*,#360,.F.);
#276=ORIENTED_EDGE('',*,*,#365,.F.);
#277=ORIENTED_EDGE('',*,*,#292,.F.);
#278=ORIENTED_EDGE('',*,*,#366,.F.);
#279=ORIENTED_EDGE('',*,*,#358,.F.);
#280=ORIENTED_EDGE('',*,*,#372,.F.);
#281=ORIENTED_EDGE('',*,*,#378,.F.);
#282=ORIENTED_EDGE('',*,*,#320,.F.);
#283=ORIENTED_EDGE('',*,*,#380,.F.);
#284=ORIENTED_EDGE('',*,*,#350,.F.);
#285=EDGE_CURVE('',#399,#400,#472,.T.);
#286=EDGE_CURVE('',#400,#401,#32,.F.);
#287=EDGE_CURVE('',#402,#401,#473,.T.);
#288=EDGE_CURVE('',#402,#403,#33,.F.);
#289=EDGE_CURVE('',#404,#403,#474,.T.);
#290=EDGE_CURVE('',#404,#405,#34,.F.);
#291=EDGE_CURVE('',#405,#406,#475,.T.);
#292=EDGE_CURVE('',#406,#399,#35,.F.);
#293=EDGE_CURVE('',#407,#407,#36,.F.);
#294=EDGE_CURVE('',#408,#409,#476,.T.);
#295=EDGE_CURVE('',#408,#410,#477,.T.);
#296=EDGE_CURVE('',#410,#411,#478,.T.);
#297=EDGE_CURVE('',#409,#411,#479,.T.);
#298=EDGE_CURVE('',#412,#408,#37,.T.);
#299=EDGE_CURVE('',#413,#412,#480,.T.);
#300=EDGE_CURVE('',#410,#413,#481,.T.);
#301=EDGE_CURVE('',#414,#415,#482,.T.);
#302=EDGE_CURVE('',#414,#416,#483,.T.);
#303=EDGE_CURVE('',#417,#416,#484,.T.);
#304=EDGE_CURVE('',#415,#417,#485,.T.);
#305=EDGE_CURVE('',#418,#419,#38,.T.);
#306=EDGE_CURVE('',#418,#420,#486,.T.);
#307=EDGE_CURVE('',#420,#421,#487,.T.);
#308=EDGE_CURVE('',#421,#419,#488,.T.);
#309=EDGE_CURVE('',#422,#423,#489,.T.);
#310=EDGE_CURVE('',#423,#424,#490,.T.);
#311=EDGE_CURVE('',#424,#425,#491,.T.);
#312=EDGE_CURVE('',#425,#422,#492,.T.);
#313=EDGE_CURVE('',#426,#418,#26,.F.);
#314=EDGE_CURVE('',#427,#426,#493,.T.);
#315=EDGE_CURVE('',#420,#427,#494,.F.);
#316=EDGE_CURVE('',#423,#428,#27,.T.);
#317=EDGE_CURVE('',#429,#422,#495,.T.);
#318=EDGE_CURVE('',#428,#429,#496,.T.);
#319=EDGE_CURVE('',#430,#431,#39,.T.);
#320=EDGE_CURVE('',#431,#432,#497,.T.);
#321=EDGE_CURVE('',#432,#433,#40,.T.);
#322=EDGE_CURVE('',#434,#433,#498,.T.);
#323=EDGE_CURVE('',#434,#435,#499,.T.);
#324=EDGE_CURVE('',#415,#435,#41,.T.);
#325=EDGE_CURVE('',#417,#430,#500,.T.);
#326=EDGE_CURVE('',#409,#436,#42,.T.);
#327=EDGE_CURVE('',#437,#411,#501,.T.);
#328=EDGE_CURVE('',#437,#438,#43,.T.);
#329=EDGE_CURVE('',#438,#439,#502,.T.);
#330=EDGE_CURVE('',#439,#440,#44,.T.);
#331=EDGE_CURVE('',#440,#441,#503,.T.);
#332=EDGE_CURVE('',#441,#436,#504,.T.);
#333=EDGE_CURVE('',#413,#442,#505,.T.);
#334=EDGE_CURVE('',#442,#421,#506,.T.);
#335=EDGE_CURVE('',#434,#427,#507,.T.);
#336=EDGE_CURVE('',#433,#443,#508,.T.);
#337=EDGE_CURVE('',#443,#444,#509,.T.);
#338=EDGE_CURVE('',#444,#437,#510,.F.);
#339=EDGE_CURVE('',#438,#445,#511,.T.);
#340=EDGE_CURVE('',#445,#446,#512,.T.);
#341=EDGE_CURVE('',#446,#439,#513,.F.);
#342=EDGE_CURVE('',#447,#429,#514,.T.);
#343=EDGE_CURVE('',#448,#425,#515,.T.);
#344=EDGE_CURVE('',#448,#441,#516,.T.);
#345=EDGE_CURVE('',#440,#449,#517,.T.);
#346=EDGE_CURVE('',#449,#450,#518,.T.);
#347=EDGE_CURVE('',#450,#430,#519,.F.);
#348=EDGE_CURVE('',#416,#447,#520,.F.);
#349=EDGE_CURVE('',#451,#452,#521,.F.);
#350=EDGE_CURVE('',#452,#453,#522,.T.);
#351=EDGE_CURVE('',#453,#454,#523,.T.);
#352=EDGE_CURVE('',#454,#451,#524,.T.);
#353=EDGE_CURVE('',#455,#456,#525,.T.);
#354=EDGE_CURVE('',#456,#457,#526,.T.);
#355=EDGE_CURVE('',#457,#458,#527,.T.);
#356=EDGE_CURVE('',#458,#455,#528,.T.);
#357=EDGE_CURVE('',#459,#460,#529,.T.);
#358=EDGE_CURVE('',#459,#461,#45,.T.);
#359=EDGE_CURVE('',#462,#461,#530,.T.);
#360=EDGE_CURVE('',#462,#463,#46,.T.);
#361=EDGE_CURVE('',#463,#464,#531,.T.);
#362=EDGE_CURVE('',#464,#465,#47,.T.);
#363=EDGE_CURVE('',#465,#466,#532,.T.);
#364=EDGE_CURVE('',#466,#460,#48,.T.);
#365=EDGE_CURVE('',#405,#462,#533,.T.);
#366=EDGE_CURVE('',#461,#406,#534,.F.);
#367=EDGE_CURVE('',#403,#464,#535,.T.);
#368=EDGE_CURVE('',#463,#404,#536,.F.);
#369=EDGE_CURVE('',#401,#466,#537,.T.);
#370=EDGE_CURVE('',#465,#402,#538,.F.);
#371=EDGE_CURVE('',#460,#400,#539,.F.);
#372=EDGE_CURVE('',#399,#459,#540,.T.);
#373=EDGE_CURVE('',#436,#467,#541,.F.);
#374=EDGE_CURVE('',#448,#467,#542,.T.);
#375=EDGE_CURVE('',#467,#424,#49,.T.);
#376=EDGE_CURVE('',#446,#449,#50,.T.);
#377=EDGE_CURVE('',#444,#445,#51,.T.);
#378=EDGE_CURVE('',#432,#452,#28,.T.);
#379=EDGE_CURVE('',#451,#443,#52,.T.);
#380=EDGE_CURVE('',#453,#431,#29,.T.);
#381=EDGE_CURVE('',#450,#454,#53,.T.);
#382=EDGE_CURVE('',#446,#458,#543,.T.);
#383=EDGE_CURVE('',#455,#445,#544,.T.);
#384=EDGE_CURVE('',#455,#444,#545,.T.);
#385=EDGE_CURVE('',#449,#458,#546,.T.);
#386=EDGE_CURVE('',#456,#443,#547,.T.);
#387=EDGE_CURVE('',#450,#457,#548,.T.);
#388=EDGE_CURVE('',#456,#451,#549,.T.);
#389=EDGE_CURVE('',#454,#457,#550,.T.);
#390=EDGE_CURVE('',#435,#426,#551,.F.);
#391=EDGE_CURVE('',#428,#468,#54,.T.);
#392=EDGE_CURVE('',#447,#468,#552,.T.);
#393=EDGE_CURVE('',#412,#469,#553,.F.);
#394=EDGE_CURVE('',#469,#442,#554,.T.);
#395=EDGE_CURVE('',#468,#414,#30,.F.);
#396=EDGE_CURVE('',#419,#469,#31,.T.);
#397=EDGE_CURVE('',#470,#470,#55,.T.);
#398=EDGE_CURVE('',#471,#471,#56,.T.);
#399=VERTEX_POINT('',#1150);
#400=VERTEX_POINT('',#1151);
#401=VERTEX_POINT('',#1153);
#402=VERTEX_POINT('',#1155);
#403=VERTEX_POINT('',#1157);
#404=VERTEX_POINT('',#1159);
#405=VERTEX_POINT('',#1161);
#406=VERTEX_POINT('',#1163);
#407=VERTEX_POINT('',#1166);
#408=VERTEX_POINT('',#1169);
#409=VERTEX_POINT('',#1170);
#410=VERTEX_POINT('',#1172);
#411=VERTEX_POINT('',#1174);
#412=VERTEX_POINT('',#1178);
#413=VERTEX_POINT('',#1180);
#414=VERTEX_POINT('',#1184);
#415=VERTEX_POINT('',#1185);
#416=VERTEX_POINT('',#1187);
#417=VERTEX_POINT('',#1189);
#418=VERTEX_POINT('',#1193);
#419=VERTEX_POINT('',#1194);
#420=VERTEX_POINT('',#1196);
#421=VERTEX_POINT('',#1198);
#422=VERTEX_POINT('',#1202);
#423=VERTEX_POINT('',#1203);
#424=VERTEX_POINT('',#1205);
#425=VERTEX_POINT('',#1207);
#426=VERTEX_POINT('',#1211);
#427=VERTEX_POINT('',#1213);
#428=VERTEX_POINT('',#1217);
#429=VERTEX_POINT('',#1219);
#430=VERTEX_POINT('',#1223);
#431=VERTEX_POINT('',#1224);
#432=VERTEX_POINT('',#1226);
#433=VERTEX_POINT('',#1228);
#434=VERTEX_POINT('',#1230);
#435=VERTEX_POINT('',#1232);
#436=VERTEX_POINT('',#1237);
#437=VERTEX_POINT('',#1239);
#438=VERTEX_POINT('',#1241);
#439=VERTEX_POINT('',#1243);
#440=VERTEX_POINT('',#1245);
#441=VERTEX_POINT('',#1247);
#442=VERTEX_POINT('',#1251);
#443=VERTEX_POINT('',#1255);
#444=VERTEX_POINT('',#1257);
#445=VERTEX_POINT('',#1261);
#446=VERTEX_POINT('',#1263);
#447=VERTEX_POINT('',#1267);
#448=VERTEX_POINT('',#1269);
#449=VERTEX_POINT('',#1272);
#450=VERTEX_POINT('',#1274);
#451=VERTEX_POINT('',#1279);
#452=VERTEX_POINT('',#1280);
#453=VERTEX_POINT('',#1282);
#454=VERTEX_POINT('',#1284);
#455=VERTEX_POINT('',#1288);
#456=VERTEX_POINT('',#1289);
#457=VERTEX_POINT('',#1291);
#458=VERTEX_POINT('',#1293);
#459=VERTEX_POINT('',#1296);
#460=VERTEX_POINT('',#1297);
#461=VERTEX_POINT('',#1299);
#462=VERTEX_POINT('',#1301);
#463=VERTEX_POINT('',#1303);
#464=VERTEX_POINT('',#1305);
#465=VERTEX_POINT('',#1307);
#466=VERTEX_POINT('',#1309);
#467=VERTEX_POINT('',#1325);
#468=VERTEX_POINT('',#1359);
#469=VERTEX_POINT('',#1363);
#470=VERTEX_POINT('',#1371);
#471=VERTEX_POINT('',#1374);
#472=LINE('',#1149,#555);
#473=LINE('',#1154,#556);
#474=LINE('',#1158,#557);
#475=LINE('',#1162,#558);
#476=LINE('',#1168,#559);
#477=LINE('',#1171,#560);
#478=LINE('',#1173,#561);
#479=LINE('',#1175,#562);
#480=LINE('',#1179,#563);
#481=LINE('',#1181,#564);
#482=LINE('',#1183,#565);
#483=LINE('',#1186,#566);
#484=LINE('',#1188,#567);
#485=LINE('',#1190,#568);
#486=LINE('',#1195,#569);
#487=LINE('',#1197,#570);
#488=LINE('',#1199,#571);
#489=LINE('',#1201,#572);
#490=LINE('',#1204,#573);
#491=LINE('',#1206,#574);
#492=LINE('',#1208,#575);
#493=LINE('',#1212,#576);
#494=LINE('',#1214,#577);
#495=LINE('',#1218,#578);
#496=LINE('',#1220,#579);
#497=LINE('',#1225,#580);
#498=LINE('',#1229,#581);
#499=LINE('',#1231,#582);
#500=LINE('',#1234,#583);
#501=LINE('',#1238,#584);
#502=LINE('',#1242,#585);
#503=LINE('',#1246,#586);
#504=LINE('',#1248,#587);
#505=LINE('',#1250,#588);
#506=LINE('',#1252,#589);
#507=LINE('',#1253,#590);
#508=LINE('',#1254,#591);
#509=LINE('',#1256,#592);
#510=LINE('',#1258,#593);
#511=LINE('',#1260,#594);
#512=LINE('',#1262,#595);
#513=LINE('',#1264,#596);
#514=LINE('',#1266,#597);
#515=LINE('',#1268,#598);
#516=LINE('',#1270,#599);
#517=LINE('',#1271,#600);
#518=LINE('',#1273,#601);
#519=LINE('',#1275,#602);
#520=LINE('',#1276,#603);
#521=LINE('',#1278,#604);
#522=LINE('',#1281,#605);
#523=LINE('',#1283,#606);
#524=LINE('',#1285,#607);
#525=LINE('',#1287,#608);
#526=LINE('',#1290,#609);
#527=LINE('',#1292,#610);
#528=LINE('',#1294,#611);
#529=LINE('',#1295,#612);
#530=LINE('',#1300,#613);
#531=LINE('',#1304,#614);
#532=LINE('',#1308,#615);
#533=LINE('',#1312,#616);
#534=LINE('',#1313,#617);
#535=LINE('',#1315,#618);
#536=LINE('',#1316,#619);
#537=LINE('',#1318,#620);
#538=LINE('',#1319,#621);
#539=LINE('',#1321,#622);
#540=LINE('',#1322,#623);
#541=LINE('',#1324,#624);
#542=LINE('',#1326,#625);
#543=LINE('',#1340,#626);
#544=LINE('',#1341,#627);
#545=LINE('',#1343,#628);
#546=LINE('',#1345,#629);
#547=LINE('',#1347,#630);
#548=LINE('',#1349,#631);
#549=LINE('',#1351,#632);
#550=LINE('',#1353,#633);
#551=LINE('',#1356,#634);
#552=LINE('',#1360,#635);
#553=LINE('',#1362,#636);
#554=LINE('',#1364,#637);
#555=VECTOR('',#912,1.);
#556=VECTOR('',#915,1.);
#557=VECTOR('',#918,1.);
#558=VECTOR('',#921,1.);
#559=VECTOR('',#928,1.);
#560=VECTOR('',#929,1.);
#561=VECTOR('',#930,1.);
#562=VECTOR('',#931,1.);
#563=VECTOR('',#936,1.);
#564=VECTOR('',#937,1.);
#565=VECTOR('',#940,1.);
#566=VECTOR('',#941,1.);
#567=VECTOR('',#942,1.);
#568=VECTOR('',#943,1.);
#569=VECTOR('',#948,1.);
#570=VECTOR('',#949,1.);
#571=VECTOR('',#950,1.);
#572=VECTOR('',#953,1.);
#573=VECTOR('',#954,1.);
#574=VECTOR('',#955,1.);
#575=VECTOR('',#956,1.);
#576=VECTOR('',#961,1.);
#577=VECTOR('',#962,1.);
#578=VECTOR('',#967,1.);
#579=VECTOR('',#968,1.);
#580=VECTOR('',#973,1.);
#581=VECTOR('',#976,1.);
#582=VECTOR('',#977,1.);
#583=VECTOR('',#980,1.);
#584=VECTOR('',#985,1.);
#585=VECTOR('',#988,1.);
#586=VECTOR('',#991,1.);
#587=VECTOR('',#992,1.);
#588=VECTOR('',#995,1.);
#589=VECTOR('',#996,1.);
#590=VECTOR('',#997,1.);
#591=VECTOR('',#998,1.);
#592=VECTOR('',#999,1.);
#593=VECTOR('',#1000,1.);
#594=VECTOR('',#1003,1.);
#595=VECTOR('',#1004,1.);
#596=VECTOR('',#1005,1.);
#597=VECTOR('',#1008,1.);
#598=VECTOR('',#1009,1.);
#599=VECTOR('',#1010,1.);
#600=VECTOR('',#1011,1.);
#601=VECTOR('',#1012,1.);
#602=VECTOR('',#1013,1.);
#603=VECTOR('',#1014,1.);
#604=VECTOR('',#1017,1.);
#605=VECTOR('',#1018,1.);
#606=VECTOR('',#1019,1.);
#607=VECTOR('',#1020,1.);
#608=VECTOR('',#1023,1.);
#609=VECTOR('',#1024,1.);
#610=VECTOR('',#1025,1.);
#611=VECTOR('',#1026,1.);
#612=VECTOR('',#1027,1.);
#613=VECTOR('',#1030,1.);
#614=VECTOR('',#1033,1.);
#615=VECTOR('',#1036,1.);
#616=VECTOR('',#1041,1.);
#617=VECTOR('',#1042,1.);
#618=VECTOR('',#1045,1.);
#619=VECTOR('',#1046,1.);
#620=VECTOR('',#1049,1.);
#621=VECTOR('',#1050,1.);
#622=VECTOR('',#1053,1.);
#623=VECTOR('',#1054,1.);
#624=VECTOR('',#1057,1.);
#625=VECTOR('',#1058,1.);
#626=VECTOR('',#1085,1.);
#627=VECTOR('',#1086,1.);
#628=VECTOR('',#1089,1.);
#629=VECTOR('',#1092,1.);
#630=VECTOR('',#1095,1.);
#631=VECTOR('',#1098,1.);
#632=VECTOR('',#1101,1.);
#633=VECTOR('',#1104,1.);
#634=VECTOR('',#1109,1.);
#635=VECTOR('',#1114,1.);
#636=VECTOR('',#1117,1.);
#637=VECTOR('',#1118,1.);
#638=EDGE_LOOP('',(#57,#58,#59,#60,#61,#62,#63,#64));
#639=EDGE_LOOP('',(#65));
#640=EDGE_LOOP('',(#66,#67,#68,#69));
#641=EDGE_LOOP('',(#70,#71,#72,#73));
#642=EDGE_LOOP('',(#74,#75,#76,#77));
#643=EDGE_LOOP('',(#78,#79,#80,#81));
#644=EDGE_LOOP('',(#82,#83,#84,#85));
#645=EDGE_LOOP('',(#86,#87,#88,#89));
#646=EDGE_LOOP('',(#90,#91,#92,#93));
#647=EDGE_LOOP('',(#94,#95,#96,#97,#98,#99,#100,#101));
#648=EDGE_LOOP('',(#102,#103,#104,#105,#106,#107,#108,#109));
#649=EDGE_LOOP('',(#110,#111,#112,#113,#114,#115,#116,#117,#118,#119,#120,
#121));
#650=EDGE_LOOP('',(#122,#123,#124,#125));
#651=EDGE_LOOP('',(#126,#127,#128,#129,#130,#131,#132,#133,#134,#135,#136,
#137));
#652=EDGE_LOOP('',(#138,#139,#140,#141));
#653=EDGE_LOOP('',(#142,#143,#144,#145));
#654=EDGE_LOOP('',(#146,#147,#148,#149,#150,#151,#152,#153));
#655=EDGE_LOOP('',(#154,#155,#156,#157));
#656=EDGE_LOOP('',(#158,#159,#160,#161));
#657=EDGE_LOOP('',(#162,#163,#164,#165));
#658=EDGE_LOOP('',(#166,#167,#168,#169));
#659=EDGE_LOOP('',(#170,#171,#172,#173));
#660=EDGE_LOOP('',(#174,#175,#176,#177));
#661=EDGE_LOOP('',(#178,#179,#180,#181));
#662=EDGE_LOOP('',(#182,#183,#184,#185));
#663=EDGE_LOOP('',(#186,#187,#188,#189,#190));
#664=EDGE_LOOP('',(#191,#192,#193,#194,#195));
#665=EDGE_LOOP('',(#196,#197,#198,#199));
#666=EDGE_LOOP('',(#200,#201,#202));
#667=EDGE_LOOP('',(#203,#204,#205));
#668=EDGE_LOOP('',(#206,#207,#208,#209));
#669=EDGE_LOOP('',(#210,#211,#212,#213));
#670=EDGE_LOOP('',(#214,#215,#216));
#671=EDGE_LOOP('',(#217,#218,#219));
#672=EDGE_LOOP('',(#220,#221,#222,#223));
#673=EDGE_LOOP('',(#224,#225,#226,#227));
#674=EDGE_LOOP('',(#228,#229,#230,#231));
#675=EDGE_LOOP('',(#232,#233,#234,#235));
#676=EDGE_LOOP('',(#236,#237,#238,#239));
#677=EDGE_LOOP('',(#240,#241,#242,#243));
#678=EDGE_LOOP('',(#244,#245,#246,#247,#248,#249,#250,#251,#252,#253,#254,
#255,#256,#257,#258,#259));
#679=EDGE_LOOP('',(#260));
#680=EDGE_LOOP('',(#261));
#681=EDGE_LOOP('',(#262));
#682=EDGE_LOOP('',(#263));
#683=EDGE_LOOP('',(#264));
#684=EDGE_LOOP('',(#265,#266,#267,#268));
#685=EDGE_LOOP('',(#269,#270,#271,#272));
#686=EDGE_LOOP('',(#273,#274,#275,#276));
#687=EDGE_LOOP('',(#277,#278,#279,#280));
#688=EDGE_LOOP('',(#281,#282,#283,#284));
#689=FACE_BOUND('',#638,.T.);
#690=FACE_BOUND('',#639,.T.);
#691=FACE_BOUND('',#640,.T.);
#692=FACE_BOUND('',#641,.T.);
#693=FACE_BOUND('',#642,.T.);
#694=FACE_BOUND('',#643,.T.);
#695=FACE_BOUND('',#644,.T.);
#696=FACE_BOUND('',#645,.T.);
#697=FACE_BOUND('',#646,.T.);
#698=FACE_BOUND('',#647,.T.);
#699=FACE_BOUND('',#648,.T.);
#700=FACE_BOUND('',#649,.T.);
#701=FACE_BOUND('',#650,.T.);
#702=FACE_BOUND('',#651,.T.);
#703=FACE_BOUND('',#652,.T.);
#704=FACE_BOUND('',#653,.T.);
#705=FACE_BOUND('',#654,.T.);
#706=FACE_BOUND('',#655,.T.);
#707=FACE_BOUND('',#656,.T.);
#708=FACE_BOUND('',#657,.T.);
#709=FACE_BOUND('',#658,.T.);
#710=FACE_BOUND('',#659,.T.);
#711=FACE_BOUND('',#660,.T.);
#712=FACE_BOUND('',#661,.T.);
#713=FACE_BOUND('',#662,.T.);
#714=FACE_BOUND('',#663,.T.);
#715=FACE_BOUND('',#664,.T.);
#716=FACE_BOUND('',#665,.T.);
#717=FACE_BOUND('',#666,.T.);
#718=FACE_BOUND('',#667,.T.);
#719=FACE_BOUND('',#668,.T.);
#720=FACE_BOUND('',#669,.T.);
#721=FACE_BOUND('',#670,.T.);
#722=FACE_BOUND('',#671,.T.);
#723=FACE_BOUND('',#672,.T.);
#724=FACE_BOUND('',#673,.T.);
#725=FACE_BOUND('',#674,.T.);
#726=FACE_BOUND('',#675,.T.);
#727=FACE_BOUND('',#676,.T.);
#728=FACE_BOUND('',#677,.T.);
#729=FACE_BOUND('',#678,.T.);
#730=FACE_BOUND('',#679,.T.);
#731=FACE_BOUND('',#680,.T.);
#732=FACE_BOUND('',#681,.T.);
#733=FACE_BOUND('',#682,.T.);
#734=FACE_BOUND('',#683,.T.);
#735=FACE_BOUND('',#684,.T.);
#736=FACE_BOUND('',#685,.T.);
#737=FACE_BOUND('',#686,.T.);
#738=FACE_BOUND('',#687,.T.);
#739=FACE_BOUND('',#688,.T.);
#740=PLANE('',#831);
#741=PLANE('',#837);
#742=PLANE('',#838);
#743=PLANE('',#840);
#744=PLANE('',#841);
#745=PLANE('',#843);
#746=PLANE('',#844);
#747=PLANE('',#846);
#748=PLANE('',#848);
#749=PLANE('',#852);
#750=PLANE('',#856);
#751=PLANE('',#857);
#752=PLANE('',#858);
#753=PLANE('',#859);
#754=PLANE('',#860);
#755=PLANE('',#865);
#756=PLANE('',#866);
#757=PLANE('',#867);
#758=PLANE('',#868);
#759=PLANE('',#869);
#760=PLANE('',#870);
#761=PLANE('',#882);
#762=PLANE('',#885);
#763=PLANE('',#886);
#764=PLANE('',#889);
#765=PLANE('',#890);
#766=PLANE('',#891);
#767=PLANE('',#893);
#768=PLANE('',#894);
#769=PLANE('',#896);
#770=PLANE('',#900);
#771=PLANE('',#907);
#772=ADVANCED_FACE('',(#689,#690),#740,.F.);
#773=ADVANCED_FACE('',(#691),#741,.T.);
#774=ADVANCED_FACE('',(#692),#742,.T.);
#775=ADVANCED_FACE('',(#693),#743,.T.);
#776=ADVANCED_FACE('',(#694),#744,.T.);
#777=ADVANCED_FACE('',(#695),#745,.F.);
#778=ADVANCED_FACE('',(#696),#746,.F.);
#779=ADVANCED_FACE('',(#697),#747,.T.);
#780=ADVANCED_FACE('',(#698),#748,.T.);
#781=ADVANCED_FACE('',(#699),#749,.T.);
#782=ADVANCED_FACE('',(#700),#750,.T.);
#783=ADVANCED_FACE('',(#701),#751,.F.);
#784=ADVANCED_FACE('',(#702),#752,.F.);
#785=ADVANCED_FACE('',(#703),#753,.T.);
#786=ADVANCED_FACE('',(#704,#705),#754,.F.);
#787=ADVANCED_FACE('',(#706),#755,.F.);
#788=ADVANCED_FACE('',(#707),#756,.T.);
#789=ADVANCED_FACE('',(#708),#757,.T.);
#790=ADVANCED_FACE('',(#709),#758,.F.);
#791=ADVANCED_FACE('',(#710),#759,.T.);
#792=ADVANCED_FACE('',(#711),#760,.T.);
#793=ADVANCED_FACE('',(#712),#16,.T.);
#794=ADVANCED_FACE('',(#713),#17,.T.);
#795=ADVANCED_FACE('',(#714),#18,.T.);
#796=ADVANCED_FACE('',(#715),#19,.T.);
#797=ADVANCED_FACE('',(#716),#761,.F.);
#798=ADVANCED_FACE('',(#717),#12,.T.);
#799=ADVANCED_FACE('',(#718),#13,.T.);
#800=ADVANCED_FACE('',(#719),#762,.T.);
#801=ADVANCED_FACE('',(#720),#763,.F.);
#802=ADVANCED_FACE('',(#721),#14,.T.);
#803=ADVANCED_FACE('',(#722),#15,.T.);
#804=ADVANCED_FACE('',(#723),#764,.T.);
#805=ADVANCED_FACE('',(#724),#765,.T.);
#806=ADVANCED_FACE('',(#725),#766,.T.);
#807=ADVANCED_FACE('',(#726),#767,.F.);
#808=ADVANCED_FACE('',(#727),#768,.F.);
#809=ADVANCED_FACE('',(#728),#769,.T.);
#810=ADVANCED_FACE('',(#729,#730),#20,.F.);
#811=ADVANCED_FACE('',(#731,#732),#770,.F.);
#812=ADVANCED_FACE('',(#733,#734),#21,.T.);
#813=ADVANCED_FACE('',(#735),#22,.F.);
#814=ADVANCED_FACE('',(#736),#23,.F.);
#815=ADVANCED_FACE('',(#737),#24,.F.);
#816=ADVANCED_FACE('',(#738),#25,.F.);
#817=ADVANCED_FACE('',(#739),#771,.F.);
#818=CLOSED_SHELL('',(#772,#773,#774,#775,#776,#777,#778,#779,#780,#781,
#782,#783,#784,#785,#786,#787,#788,#789,#790,#791,#792,#793,#794,#795,#796,
#797,#798,#799,#800,#801,#802,#803,#804,#805,#806,#807,#808,#809,#810,#811,
#812,#813,#814,#815,#816,#817));
#819=STYLED_ITEM('',(#820),#827);
#820=PRESENTATION_STYLE_ASSIGNMENT((#821));
#821=SURFACE_STYLE_USAGE(.BOTH.,#822);
#822=SURFACE_SIDE_STYLE('',(#823));
#823=SURFACE_STYLE_FILL_AREA(#824);
#824=FILL_AREA_STYLE('',(#825));
#825=FILL_AREA_STYLE_COLOUR('',#826);
#826=COLOUR_RGB('',0.615686274509804,0.811764705882353,0.929411764705882);
#827=MANIFOLD_SOLID_BREP('Part 1',#818);
#828=SHAPE_DEFINITION_REPRESENTATION(#1387,#829);
#829=SHAPE_REPRESENTATION('Part 1',(#830),#1382);
#830=AXIS2_PLACEMENT_3D('',#1147,#908,#909);
#831=AXIS2_PLACEMENT_3D('',#1148,#910,#911);
#832=AXIS2_PLACEMENT_3D('',#1152,#913,#914);
#833=AXIS2_PLACEMENT_3D('',#1156,#916,#917);
#834=AXIS2_PLACEMENT_3D('',#1160,#919,#920);
#835=AXIS2_PLACEMENT_3D('',#1164,#922,#923);
#836=AXIS2_PLACEMENT_3D('',#1165,#924,#925);
#837=AXIS2_PLACEMENT_3D('',#1167,#926,#927);
#838=AXIS2_PLACEMENT_3D('',#1176,#932,#933);
#839=AXIS2_PLACEMENT_3D('',#1177,#934,#935);
#840=AXIS2_PLACEMENT_3D('',#1182,#938,#939);
#841=AXIS2_PLACEMENT_3D('',#1191,#944,#945);
#842=AXIS2_PLACEMENT_3D('',#1192,#946,#947);
#843=AXIS2_PLACEMENT_3D('',#1200,#951,#952);
#844=AXIS2_PLACEMENT_3D('',#1209,#957,#958);
#845=AXIS2_PLACEMENT_3D('',#1210,#959,#960);
#846=AXIS2_PLACEMENT_3D('',#1215,#963,#964);
#847=AXIS2_PLACEMENT_3D('',#1216,#965,#966);
#848=AXIS2_PLACEMENT_3D('',#1221,#969,#970);
#849=AXIS2_PLACEMENT_3D('',#1222,#971,#972);
#850=AXIS2_PLACEMENT_3D('',#1227,#974,#975);
#851=AXIS2_PLACEMENT_3D('',#1233,#978,#979);
#852=AXIS2_PLACEMENT_3D('',#1235,#981,#982);
#853=AXIS2_PLACEMENT_3D('',#1236,#983,#984);
#854=AXIS2_PLACEMENT_3D('',#1240,#986,#987);
#855=AXIS2_PLACEMENT_3D('',#1244,#989,#990);
#856=AXIS2_PLACEMENT_3D('',#1249,#993,#994);
#857=AXIS2_PLACEMENT_3D('',#1259,#1001,#1002);
#858=AXIS2_PLACEMENT_3D('',#1265,#1006,#1007);
#859=AXIS2_PLACEMENT_3D('',#1277,#1015,#1016);
#860=AXIS2_PLACEMENT_3D('',#1286,#1021,#1022);
#861=AXIS2_PLACEMENT_3D('',#1298,#1028,#1029);
#862=AXIS2_PLACEMENT_3D('',#1302,#1031,#1032);
#863=AXIS2_PLACEMENT_3D('',#1306,#1034,#1035);
#864=AXIS2_PLACEMENT_3D('',#1310,#1037,#1038);
#865=AXIS2_PLACEMENT_3D('',#1311,#1039,#1040);
#866=AXIS2_PLACEMENT_3D('',#1314,#1043,#1044);
#867=AXIS2_PLACEMENT_3D('',#1317,#1047,#1048);
#868=AXIS2_PLACEMENT_3D('',#1320,#1051,#1052);
#869=AXIS2_PLACEMENT_3D('',#1323,#1055,#1056);
#870=AXIS2_PLACEMENT_3D('',#1327,#1059,#1060);
#871=AXIS2_PLACEMENT_3D('',#1328,#1061,#1062);
#872=AXIS2_PLACEMENT_3D('',#1329,#1063,#1064);
#873=AXIS2_PLACEMENT_3D('',#1330,#1065,#1066);
#874=AXIS2_PLACEMENT_3D('',#1331,#1067,#1068);
#875=AXIS2_PLACEMENT_3D('',#1332,#1069,#1070);
#876=AXIS2_PLACEMENT_3D('',#1333,#1071,#1072);
#877=AXIS2_PLACEMENT_3D('',#1334,#1073,#1074);
#878=AXIS2_PLACEMENT_3D('',#1335,#1075,#1076);
#879=AXIS2_PLACEMENT_3D('',#1336,#1077,#1078);
#880=AXIS2_PLACEMENT_3D('',#1337,#1079,#1080);
#881=AXIS2_PLACEMENT_3D('',#1338,#1081,#1082);
#882=AXIS2_PLACEMENT_3D('',#1339,#1083,#1084);
#883=AXIS2_PLACEMENT_3D('',#1342,#1087,#1088);
#884=AXIS2_PLACEMENT_3D('',#1344,#1090,#1091);
#885=AXIS2_PLACEMENT_3D('',#1346,#1093,#1094);
#886=AXIS2_PLACEMENT_3D('',#1348,#1096,#1097);
#887=AXIS2_PLACEMENT_3D('',#1350,#1099,#1100);
#888=AXIS2_PLACEMENT_3D('',#1352,#1102,#1103);
#889=AXIS2_PLACEMENT_3D('',#1354,#1105,#1106);
#890=AXIS2_PLACEMENT_3D('',#1355,#1107,#1108);
#891=AXIS2_PLACEMENT_3D('',#1357,#1110,#1111);
#892=AXIS2_PLACEMENT_3D('',#1358,#1112,#1113);
#893=AXIS2_PLACEMENT_3D('',#1361,#1115,#1116);
#894=AXIS2_PLACEMENT_3D('',#1365,#1119,#1120);
#895=AXIS2_PLACEMENT_3D('',#1366,#1121,#1122);
#896=AXIS2_PLACEMENT_3D('',#1367,#1123,#1124);
#897=AXIS2_PLACEMENT_3D('',#1368,#1125,#1126);
#898=AXIS2_PLACEMENT_3D('',#1369,#1127,#1128);
#899=AXIS2_PLACEMENT_3D('',#1370,#1129,#1130);
#900=AXIS2_PLACEMENT_3D('',#1372,#1131,#1132);
#901=AXIS2_PLACEMENT_3D('',#1373,#1133,#1134);
#902=AXIS2_PLACEMENT_3D('',#1375,#1135,#1136);
#903=AXIS2_PLACEMENT_3D('',#1376,#1137,#1138);
#904=AXIS2_PLACEMENT_3D('',#1377,#1139,#1140);
#905=AXIS2_PLACEMENT_3D('',#1378,#1141,#1142);
#906=AXIS2_PLACEMENT_3D('',#1379,#1143,#1144);
#907=AXIS2_PLACEMENT_3D('',#1380,#1145,#1146);
#908=DIRECTION('',(0.,0.,1.));
#909=DIRECTION('',(1.,0.,0.));
#910=DIRECTION('',(0.,0.,1.));
#911=DIRECTION('',(1.,0.,0.));
#912=DIRECTION('',(0.,-1.,0.));
#913=DIRECTION('',(0.,0.,1.));
#914=DIRECTION('',(1.,0.,0.));
#915=DIRECTION('',(1.,0.,0.));
#916=DIRECTION('',(0.,0.,1.));
#917=DIRECTION('',(1.,0.,0.));
#918=DIRECTION('',(0.,-1.,0.));
#919=DIRECTION('',(0.,0.,1.));
#920=DIRECTION('',(1.,0.,0.));
#921=DIRECTION('',(1.,0.,0.));
#922=DIRECTION('',(0.,0.,1.));
#923=DIRECTION('',(1.,0.,0.));
#924=DIRECTION('',(0.,0.,1.));
#925=DIRECTION('',(1.,0.,0.));
#926=DIRECTION('',(-1.,0.,0.));
#927=DIRECTION('',(0.,0.,1.));
#928=DIRECTION('',(0.,0.,-1.));
#929=DIRECTION('',(0.,1.,0.));
#930=DIRECTION('',(0.,0.,-1.));
#931=DIRECTION('',(0.,1.,0.));
#932=DIRECTION('',(0.,0.,1.));
#933=DIRECTION('',(1.,0.,0.));
#934=DIRECTION('',(0.,0.,1.));
#935=DIRECTION('',(1.,0.,0.));
#936=DIRECTION('',(0.,-1.,0.));
#937=DIRECTION('',(1.,0.,0.));
#938=DIRECTION('',(1.,0.,0.));
#939=DIRECTION('',(0.,0.,-1.));
#940=DIRECTION('',(0.,0.,-1.));
#941=DIRECTION('',(0.,-1.,0.));
#942=DIRECTION('',(0.,0.,1.));
#943=DIRECTION('',(0.,-1.,0.));
#944=DIRECTION('',(0.,0.,1.));
#945=DIRECTION('',(1.,0.,0.));
#946=DIRECTION('',(0.,0.,1.));
#947=DIRECTION('',(1.,0.,0.));
#948=DIRECTION('',(0.,1.,0.));
#949=DIRECTION('',(-1.,0.,0.));
#950=DIRECTION('',(0.,-1.,0.));
#951=DIRECTION('',(1.,0.,0.));
#952=DIRECTION('',(0.,0.,-1.));
#953=DIRECTION('',(0.,1.,0.));
#954=DIRECTION('',(0.,0.,-1.));
#955=DIRECTION('',(0.,-1.,0.));
#956=DIRECTION('',(0.,0.,1.));
#957=DIRECTION('',(-0.857492925712547,0.,-0.514495755427521));
#958=DIRECTION('',(0.,-1.,0.));
#959=DIRECTION('',(-0.857492925712547,0.,-0.514495755427521));
#960=DIRECTION('',(0.514495755427521,0.,-0.857492925712547));
#961=DIRECTION('',(0.,-1.,0.));
#962=DIRECTION('',(-0.514495755427521,0.,0.857492925712548));
#963=DIRECTION('',(-0.514495755427526,0.,0.857492925712544));
#964=DIRECTION('',(0.,1.,0.));
#965=DIRECTION('',(-0.514495755427526,0.,0.857492925712544));
#966=DIRECTION('',(-0.857492925712544,0.,-0.514495755427527));
#967=DIRECTION('',(-0.857492925712544,0.,-0.514495755427527));
#968=DIRECTION('',(0.,-1.,0.));
#969=DIRECTION('',(0.,0.,1.));
#970=DIRECTION('',(1.,0.,0.));
#971=DIRECTION('',(0.,0.,1.));
#972=DIRECTION('',(1.,0.,0.));
#973=DIRECTION('',(0.,1.,0.));
#974=DIRECTION('',(0.,0.,1.));
#975=DIRECTION('',(1.,0.,0.));
#976=DIRECTION('',(1.,0.,0.));
#977=DIRECTION('',(0.,-1.,0.));
#978=DIRECTION('',(0.,0.,1.));
#979=DIRECTION('',(1.,0.,0.));
#980=DIRECTION('',(1.,0.,0.));
#981=DIRECTION('',(0.,0.,1.));
#982=DIRECTION('',(1.,0.,0.));
#983=DIRECTION('',(0.,0.,1.));
#984=DIRECTION('',(1.,0.,0.));
#985=DIRECTION('',(1.,0.,0.));
#986=DIRECTION('',(0.,0.,1.));
#987=DIRECTION('',(1.,0.,0.));
#988=DIRECTION('',(0.,-1.,0.));
#989=DIRECTION('',(0.,0.,1.));
#990=DIRECTION('',(1.,0.,0.));
#991=DIRECTION('',(1.,0.,0.));
#992=DIRECTION('',(0.,1.,0.));
#993=DIRECTION('',(0.,1.,0.));
#994=DIRECTION('',(0.,0.,1.));
#995=DIRECTION('',(0.,0.,1.));
#996=DIRECTION('',(0.857492925712544,0.,0.514495755427527));
#997=DIRECTION('',(0.,0.,1.));
#998=DIRECTION('',(0.,0.,-1.));
#999=DIRECTION('',(-1.,0.,0.));
#1000=DIRECTION('',(0.,0.,-1.));
#1001=DIRECTION('',(1.,0.,0.));
#1002=DIRECTION('',(0.,0.,-1.));
#1003=DIRECTION('',(0.,0.,-1.));
#1004=DIRECTION('',(0.,-1.,0.));
#1005=DIRECTION('',(0.,0.,-1.));
#1006=DIRECTION('',(0.,1.,0.));
#1007=DIRECTION('',(0.,0.,1.));
#1008=DIRECTION('',(-1.,0.,0.));
#1009=DIRECTION('',(1.,0.,0.));
#1010=DIRECTION('',(0.,0.,-1.));
#1011=DIRECTION('',(0.,0.,-1.));
#1012=DIRECTION('',(1.,0.,0.));
#1013=DIRECTION('',(0.,0.,-1.));
#1014=DIRECTION('',(0.514495755427521,0.,-0.857492925712548));
#1015=DIRECTION('',(1.,0.,0.));
#1016=DIRECTION('',(0.,0.,-1.));
#1017=DIRECTION('',(0.,0.,-1.));
#1018=DIRECTION('',(0.,-1.,0.));
#1019=DIRECTION('',(0.,0.,-1.));
#1020=DIRECTION('',(0.,1.,0.));
#1021=DIRECTION('',(0.,0.,1.));
#1022=DIRECTION('',(1.,0.,0.));
#1023=DIRECTION('',(1.,0.,0.));
#1024=DIRECTION('',(0.,-1.,0.));
#1025=DIRECTION('',(-1.,0.,0.));
#1026=DIRECTION('',(0.,1.,0.));
#1027=DIRECTION('',(0.,-1.,0.));
#1028=DIRECTION('',(0.,0.,1.));
#1029=DIRECTION('',(1.,0.,0.));
#1030=DIRECTION('',(1.,0.,0.));
#1031=DIRECTION('',(0.,0.,1.));
#1032=DIRECTION('',(1.,0.,0.));
#1033=DIRECTION('',(0.,-1.,0.));
#1034=DIRECTION('',(0.,0.,1.));
#1035=DIRECTION('',(1.,0.,0.));
#1036=DIRECTION('',(1.,0.,0.));
#1037=DIRECTION('',(0.,0.,1.));
#1038=DIRECTION('',(1.,0.,0.));
#1039=DIRECTION('',(0.,1.,0.));
#1040=DIRECTION('',(0.,0.,1.));
#1041=DIRECTION('',(0.,0.,-1.));
#1042=DIRECTION('',(0.,0.,-1.));
#1043=DIRECTION('',(1.,0.,0.));
#1044=DIRECTION('',(0.,0.,-1.));
#1045=DIRECTION('',(0.,0.,-1.));
#1046=DIRECTION('',(0.,0.,-1.));
#1047=DIRECTION('',(0.,1.,0.));
#1048=DIRECTION('',(0.,0.,1.));
#1049=DIRECTION('',(0.,0.,-1.));
#1050=DIRECTION('',(0.,0.,-1.));
#1051=DIRECTION('',(1.,0.,0.));
#1052=DIRECTION('',(0.,0.,-1.));
#1053=DIRECTION('',(0.,0.,-1.));
#1054=DIRECTION('',(0.,0.,-1.));
#1055=DIRECTION('',(-1.,0.,0.));
#1056=DIRECTION('',(0.,0.,1.));
#1057=DIRECTION('',(0.,0.,-1.));
#1058=DIRECTION('',(0.,1.,0.));
#1059=DIRECTION('',(0.,0.,1.));
#1060=DIRECTION('',(1.,0.,0.));
#1061=DIRECTION('',(0.,0.,1.));
#1062=DIRECTION('',(1.,0.,0.));
#1063=DIRECTION('',(0.,0.,-1.));
#1064=DIRECTION('',(-1.,0.,0.));
#1065=DIRECTION('',(0.,0.,1.));
#1066=DIRECTION('',(1.,0.,0.));
#1067=DIRECTION('',(0.,0.,1.));
#1068=DIRECTION('',(1.,0.,0.));
#1069=DIRECTION('',(0.,0.,1.));
#1070=DIRECTION('',(1.,0.,0.));
#1071=DIRECTION('',(0.,0.,-1.));
#1072=DIRECTION('',(-1.,0.,0.));
#1073=DIRECTION('',(-0.88438475284697,0.,-0.466758619558123));
#1074=DIRECTION('',(0.466758619558123,0.,-0.88438475284697));
#1075=DIRECTION('',(0.,0.,1.));
#1076=DIRECTION('',(1.,0.,0.));
#1077=DIRECTION('',(0.,0.,1.));
#1078=DIRECTION('',(1.,0.,0.));
#1079=DIRECTION('',(-0.88438475284697,0.,-0.466758619558123));
#1080=DIRECTION('',(-0.466758619558123,0.,0.88438475284697));
#1081=DIRECTION('',(0.,0.,1.));
#1082=DIRECTION('',(1.,0.,0.));
#1083=DIRECTION('',(0.894427190999916,0.,0.447213595499958));
#1084=DIRECTION('',(0.,-1.,0.));
#1085=DIRECTION('',(0.447213595499958,0.,-0.894427190999916));
#1086=DIRECTION('',(-0.447213595499958,0.,0.894427190999916));
#1087=DIRECTION('',(0.,0.,1.));
#1088=DIRECTION('',(1.,0.,0.));
#1089=DIRECTION('',(0.,0.447213595499958,0.894427190999916));
#1090=DIRECTION('',(0.,0.,1.));
#1091=DIRECTION('',(1.,0.,0.));
#1092=DIRECTION('',(0.,0.447213595499958,-0.894427190999916));
#1093=DIRECTION('',(0.,0.894427190999916,-0.447213595499958));
#1094=DIRECTION('',(-1.,0.,0.));
#1095=DIRECTION('',(0.,0.447213595499958,0.894427190999916));
#1096=DIRECTION('',(0.,0.894427190999916,0.447213595499958));
#1097=DIRECTION('',(1.,0.,0.));
#1098=DIRECTION('',(0.,0.447213595499958,-0.894427190999916));
#1099=DIRECTION('',(0.,0.,1.));
#1100=DIRECTION('',(1.,0.,0.));
#1101=DIRECTION('',(0.447213595499958,0.,0.894427190999916));
#1102=DIRECTION('',(0.,0.,1.));
#1103=DIRECTION('',(1.,0.,0.));
#1104=DIRECTION('',(-0.447213595499958,0.,-0.894427190999916));
#1105=DIRECTION('',(0.894427190999916,0.,-0.447213595499958));
#1106=DIRECTION('',(0.,1.,0.));
#1107=DIRECTION('',(1.,0.,0.));
#1108=DIRECTION('',(0.,0.,-1.));
#1109=DIRECTION('',(0.,0.,-1.));
#1110=DIRECTION('',(0.,0.,1.));
#1111=DIRECTION('',(1.,0.,0.));
#1112=DIRECTION('',(0.,0.,1.));
#1113=DIRECTION('',(1.,0.,0.));
#1114=DIRECTION('',(0.,1.,0.));
#1115=DIRECTION('',(1.,0.,0.));
#1116=DIRECTION('',(0.,0.,-1.));
#1117=DIRECTION('',(0.,0.,-1.));
#1118=DIRECTION('',(0.,1.,0.));
#1119=DIRECTION('',(-0.857492925712547,0.,-0.514495755427521));
#1120=DIRECTION('',(0.,-1.,0.));
#1121=DIRECTION('',(-0.857492925712547,0.,-0.514495755427521));
#1122=DIRECTION('',(0.514495755427521,0.,-0.857492925712547));
#1123=DIRECTION('',(-0.514495755427526,0.,0.857492925712544));
#1124=DIRECTION('',(0.,1.,0.));
#1125=DIRECTION('',(-0.514495755427526,0.,0.857492925712544));
#1126=DIRECTION('',(-0.857492925712544,0.,-0.514495755427527));
#1127=DIRECTION('',(0.,0.,-1.));
#1128=DIRECTION('',(-1.,0.,0.));
#1129=DIRECTION('',(0.,0.,1.));
#1130=DIRECTION('',(1.,0.,0.));
#1131=DIRECTION('',(0.,0.,1.));
#1132=DIRECTION('',(1.,0.,0.));
#1133=DIRECTION('',(0.,0.,1.));
#1134=DIRECTION('',(1.,0.,0.));
#1135=DIRECTION('',(0.,0.,1.));
#1136=DIRECTION('',(1.,0.,0.));
#1137=DIRECTION('',(0.,0.,-1.));
#1138=DIRECTION('',(-1.,0.,0.));
#1139=DIRECTION('',(0.,0.,1.));
#1140=DIRECTION('',(1.,0.,0.));
#1141=DIRECTION('',(0.,0.,-1.));
#1142=DIRECTION('',(-1.,0.,0.));
#1143=DIRECTION('',(0.,0.,1.));
#1144=DIRECTION('',(1.,0.,0.));
#1145=DIRECTION('',(-0.88438475284697,0.,-0.466758619558123));
#1146=DIRECTION('',(0.,-1.,0.));
#1147=CARTESIAN_POINT('',(0.,0.,0.));
#1148=CARTESIAN_POINT('',(0.,0.,0.0042));
#1149=CARTESIAN_POINT('',(0.00935,-1.7347234759768E-18,0.0042));
#1150=CARTESIAN_POINT('',(0.00935,0.00895,0.0042));
#1151=CARTESIAN_POINT('',(0.00935,-0.00895,0.0042));
#1152=CARTESIAN_POINT('',(0.00895,-0.00895,0.0042));
#1153=CARTESIAN_POINT('',(0.00895,-0.00935,0.0042));
#1154=CARTESIAN_POINT('',(-1.7347234759768E-18,-0.00935,0.0042));
#1155=CARTESIAN_POINT('',(-0.00895,-0.00935,0.0042));
#1156=CARTESIAN_POINT('',(-0.00895,-0.00895,0.0042));
#1157=CARTESIAN_POINT('',(-0.00935,-0.00895,0.0042));
#1158=CARTESIAN_POINT('',(-0.00935,-1.7347234759768E-18,0.0042));
#1159=CARTESIAN_POINT('',(-0.00935,0.00895,0.0042));
#1160=CARTESIAN_POINT('',(-0.00895,0.00895,0.0042));
#1161=CARTESIAN_POINT('',(-0.00895,0.00935,0.0042));
#1162=CARTESIAN_POINT('',(-8.67361737988404E-19,0.00935,0.0042));
#1163=CARTESIAN_POINT('',(0.00895,0.00935,0.0042));
#1164=CARTESIAN_POINT('',(0.00895,0.00895,0.0042));
#1165=CARTESIAN_POINT('',(0.,-4.163799117101E-19,0.0042));
#1166=CARTESIAN_POINT('',(0.0035,-4.163799117101E-19,0.0042));
#1167=CARTESIAN_POINT('',(-0.0031,0.,0.01));
#1168=CARTESIAN_POINT('',(-0.0031,0.00113137084989847,0.0469573975816072));
#1169=CARTESIAN_POINT('',(-0.0031,0.00113137084989847,0.01));
#1170=CARTESIAN_POINT('',(-0.0031,0.00113137084989847,0.005));
#1171=CARTESIAN_POINT('',(-0.0031,0.,0.01));
#1172=CARTESIAN_POINT('',(-0.0031,0.01685,0.01));
#1173=CARTESIAN_POINT('',(-0.0031,0.01685,0.01));
#1174=CARTESIAN_POINT('',(-0.0031,0.01685,0.005));
#1175=CARTESIAN_POINT('',(-0.0031,0.,0.005));
#1176=CARTESIAN_POINT('',(0.,-0.00317760505277419,0.01));
#1177=CARTESIAN_POINT('',(0.,-2.02066721859313E-19,0.01));
#1178=CARTESIAN_POINT('',(-0.00305,0.00125996031683541,0.01));
#1179=CARTESIAN_POINT('',(-0.00305,0.016852,0.01));
#1180=CARTESIAN_POINT('',(-0.00305,0.01685,0.01));
#1181=CARTESIAN_POINT('',(0.,0.01685,0.01));
#1182=CARTESIAN_POINT('',(0.00305,0.016852,0.0107));
#1183=CARTESIAN_POINT('',(0.00305,-0.00125996031683542,0.0469573975816072));
#1184=CARTESIAN_POINT('',(0.00305,-0.00125996031683542,0.0109));
#1185=CARTESIAN_POINT('',(0.00305,-0.00125996031683542,0.01));
#1186=CARTESIAN_POINT('',(0.00305,0.016852,0.0109));
#1187=CARTESIAN_POINT('',(0.00305,-0.01685,0.0109));
#1188=CARTESIAN_POINT('',(0.00305,-0.01685,0.0107));
#1189=CARTESIAN_POINT('',(0.00305,-0.01685,0.01));
#1190=CARTESIAN_POINT('',(0.00305,0.016852,0.01));
#1191=CARTESIAN_POINT('',(0.,0.016852,0.0114));
#1192=CARTESIAN_POINT('',(0.,-2.02066721859313E-19,0.0114));
#1193=CARTESIAN_POINT('',(0.00275,0.00182414363469546,0.0114));
#1194=CARTESIAN_POINT('',(-0.00255,0.00209463600656533,0.0114));
#1195=CARTESIAN_POINT('',(0.00275,0.016852,0.0114));
#1196=CARTESIAN_POINT('',(0.00275,0.01685,0.0114));
#1197=CARTESIAN_POINT('',(0.,0.01685,0.0114));
#1198=CARTESIAN_POINT('',(-0.00255,0.01685,0.0114));
#1199=CARTESIAN_POINT('',(-0.00255,-0.01685,0.0114));
#1200=CARTESIAN_POINT('',(-0.00305,0.016852,0.0107));
#1201=CARTESIAN_POINT('',(-0.00305,0.01685,0.0111));
#1202=CARTESIAN_POINT('',(-0.00305,-0.01685,0.0111));
#1203=CARTESIAN_POINT('',(-0.00305,-0.00125996031683541,0.0111));
#1204=CARTESIAN_POINT('',(-0.00305,-0.00125996031683541,0.0469573975816072));
#1205=CARTESIAN_POINT('',(-0.00305,-0.00125996031683541,0.01));
#1206=CARTESIAN_POINT('',(-0.00305,0.016852,0.01));
#1207=CARTESIAN_POINT('',(-0.00305,-0.01685,0.01));
#1208=CARTESIAN_POINT('',(-0.00305,-0.01685,0.0107));
#1209=CARTESIAN_POINT('',(0.00305,0.016852,0.0109));
#1210=CARTESIAN_POINT('',(0.,-2.02066721859313E-19,0.0159833333333334));
#1211=CARTESIAN_POINT('',(0.00305,0.00125996031683542,0.0109));
#1212=CARTESIAN_POINT('',(0.00305,0.016852,0.0109));
#1213=CARTESIAN_POINT('',(0.00305,0.01685,0.0109));
#1214=CARTESIAN_POINT('',(0.00484558823529412,0.01685,0.00790735294117643));
#1215=CARTESIAN_POINT('',(-0.00255,0.016852,0.0114));
#1216=CARTESIAN_POINT('',(0.,-2.02066721859313E-19,0.01293));
#1217=CARTESIAN_POINT('',(-0.00255,-0.00209463600656534,0.0114));
#1218=CARTESIAN_POINT('',(-0.00255,-0.01685,0.0114));
#1219=CARTESIAN_POINT('',(-0.00255,-0.01685,0.0114));
#1220=CARTESIAN_POINT('',(-0.00255,-0.01685,0.0114));
#1221=CARTESIAN_POINT('',(0.,-0.00317760505277419,0.01));
#1222=CARTESIAN_POINT('',(0.00985,-0.01485,0.01));
#1223=CARTESIAN_POINT('',(0.00985,-0.01685,0.01));
#1224=CARTESIAN_POINT('',(0.00995,-0.0168474984355438,0.01));
#1225=CARTESIAN_POINT('',(0.00995,-0.00317760505277419,0.01));
#1226=CARTESIAN_POINT('',(0.00995,0.0168474984355438,0.01));
#1227=CARTESIAN_POINT('',(0.00985,0.01485,0.01));
#1228=CARTESIAN_POINT('',(0.00985,0.01685,0.01));
#1229=CARTESIAN_POINT('',(0.,0.01685,0.01));
#1230=CARTESIAN_POINT('',(0.00305,0.01685,0.01));
#1231=CARTESIAN_POINT('',(0.00305,0.016852,0.01));
#1232=CARTESIAN_POINT('',(0.00305,0.00125996031683542,0.01));
#1233=CARTESIAN_POINT('',(0.,-2.02066721859313E-19,0.01));
#1234=CARTESIAN_POINT('',(0.,-0.01685,0.01));
#1235=CARTESIAN_POINT('',(0.,0.,0.005));
#1236=CARTESIAN_POINT('',(0.,-2.02066721859313E-19,0.005));
#1237=CARTESIAN_POINT('',(-0.0031,-0.00113137084989847,0.005));
#1238=CARTESIAN_POINT('',(0.,0.01685,0.005));
#1239=CARTESIAN_POINT('',(-0.00985,0.01685,0.005));
#1240=CARTESIAN_POINT('',(-0.00985,0.01485,0.005));
#1241=CARTESIAN_POINT('',(-0.01185,0.01485,0.005));
#1242=CARTESIAN_POINT('',(-0.01185,0.,0.005));
#1243=CARTESIAN_POINT('',(-0.01185,-0.01485,0.005));
#1244=CARTESIAN_POINT('',(-0.00985,-0.01485,0.005));
#1245=CARTESIAN_POINT('',(-0.00985,-0.01685,0.005));
#1246=CARTESIAN_POINT('',(0.,-0.01685,0.005));
#1247=CARTESIAN_POINT('',(-0.0031,-0.01685,0.005));
#1248=CARTESIAN_POINT('',(-0.0031,0.,0.005));
#1249=CARTESIAN_POINT('',(0.,0.01685,0.005));
#1250=CARTESIAN_POINT('',(-0.00305,0.01685,0.0107));
#1251=CARTESIAN_POINT('',(-0.00305,0.01685,0.0111));
#1252=CARTESIAN_POINT('',(-0.00349852941176471,0.01685,0.0108308823529412));
#1253=CARTESIAN_POINT('',(0.00305,0.01685,0.0107));
#1254=CARTESIAN_POINT('',(0.00985,0.01685,0.005));
#1255=CARTESIAN_POINT('',(0.00985,0.01685,0.004));
#1256=CARTESIAN_POINT('',(-0.00985,0.01685,0.004));
#1257=CARTESIAN_POINT('',(-0.00985,0.01685,0.004));
#1258=CARTESIAN_POINT('',(-0.00985,0.01685,0.005));
#1259=CARTESIAN_POINT('',(-0.01185,0.,0.005));
#1260=CARTESIAN_POINT('',(-0.01185,0.01485,0.));
#1261=CARTESIAN_POINT('',(-0.01185,0.01485,0.004));
#1262=CARTESIAN_POINT('',(-0.01185,0.,0.004));
#1263=CARTESIAN_POINT('',(-0.01185,-0.01485,0.004));
#1264=CARTESIAN_POINT('',(-0.01185,-0.01485,0.005));
#1265=CARTESIAN_POINT('',(0.,-0.01685,0.005));
#1266=CARTESIAN_POINT('',(0.,-0.01685,0.0114));
#1267=CARTESIAN_POINT('',(0.00275,-0.01685,0.0114));
#1268=CARTESIAN_POINT('',(0.,-0.01685,0.01));
#1269=CARTESIAN_POINT('',(-0.0031,-0.01685,0.01));
#1270=CARTESIAN_POINT('',(-0.0031,-0.01685,0.01));
#1271=CARTESIAN_POINT('',(-0.00985,-0.01685,0.005));
#1272=CARTESIAN_POINT('',(-0.00985,-0.01685,0.004));
#1273=CARTESIAN_POINT('',(0.,-0.01685,0.004));
#1274=CARTESIAN_POINT('',(0.00985,-0.01685,0.004));
#1275=CARTESIAN_POINT('',(0.00985,-0.01685,0.01));
#1276=CARTESIAN_POINT('',(0.00305,-0.01685,0.0109));
#1277=CARTESIAN_POINT('',(0.01185,0.,0.005));
#1278=CARTESIAN_POINT('',(0.01185,0.01485,0.005));
#1279=CARTESIAN_POINT('',(0.01185,0.01485,0.004));
#1280=CARTESIAN_POINT('',(0.01185,0.01485,0.0064));
#1281=CARTESIAN_POINT('',(0.01185,0.,0.0064));
#1282=CARTESIAN_POINT('',(0.01185,-0.01485,0.0064));
#1283=CARTESIAN_POINT('',(0.01185,-0.01485,0.));
#1284=CARTESIAN_POINT('',(0.01185,-0.01485,0.004));
#1285=CARTESIAN_POINT('',(0.01185,0.01485,0.004));
#1286=CARTESIAN_POINT('',(0.,0.,0.));
#1287=CARTESIAN_POINT('',(0.00985,0.01485,0.));
#1288=CARTESIAN_POINT('',(-0.00985,0.01485,0.));
#1289=CARTESIAN_POINT('',(0.00985,0.01485,0.));
#1290=CARTESIAN_POINT('',(0.00985,-0.01485,0.));
#1291=CARTESIAN_POINT('',(0.00985,-0.01485,0.));
#1292=CARTESIAN_POINT('',(0.,-0.01485,0.));
#1293=CARTESIAN_POINT('',(-0.00985,-0.01485,0.));
#1294=CARTESIAN_POINT('',(-0.00985,0.,0.));
#1295=CARTESIAN_POINT('',(0.00935,-1.7347234759768E-18,0.));
#1296=CARTESIAN_POINT('',(0.00935,0.00895,0.));
#1297=CARTESIAN_POINT('',(0.00935,-0.00895,0.));
#1298=CARTESIAN_POINT('',(0.00895,0.00895,0.));
#1299=CARTESIAN_POINT('',(0.00895,0.00935,0.));
#1300=CARTESIAN_POINT('',(-8.67361737988404E-19,0.00935,0.));
#1301=CARTESIAN_POINT('',(-0.00895,0.00935,0.));
#1302=CARTESIAN_POINT('',(-0.00895,0.00895,0.));
#1303=CARTESIAN_POINT('',(-0.00935,0.00895,0.));
#1304=CARTESIAN_POINT('',(-0.00935,-1.7347234759768E-18,0.));
#1305=CARTESIAN_POINT('',(-0.00935,-0.00895,0.));
#1306=CARTESIAN_POINT('',(-0.00895,-0.00895,0.));
#1307=CARTESIAN_POINT('',(-0.00895,-0.00935,0.));
#1308=CARTESIAN_POINT('',(-1.7347234759768E-18,-0.00935,0.));
#1309=CARTESIAN_POINT('',(0.00895,-0.00935,0.));
#1310=CARTESIAN_POINT('',(0.00895,-0.00895,0.));
#1311=CARTESIAN_POINT('',(-8.67361737988404E-19,0.00935,0.0042));
#1312=CARTESIAN_POINT('',(-0.00895,0.00935,0.0042));
#1313=CARTESIAN_POINT('',(0.00895,0.00935,0.0042));
#1314=CARTESIAN_POINT('',(-0.00935,-1.7347234759768E-18,0.0042));
#1315=CARTESIAN_POINT('',(-0.00935,-0.00895,0.));
#1316=CARTESIAN_POINT('',(-0.00935,0.00895,0.0042));
#1317=CARTESIAN_POINT('',(-1.7347234759768E-18,-0.00935,0.0042));
#1318=CARTESIAN_POINT('',(0.00895,-0.00935,0.0042));
#1319=CARTESIAN_POINT('',(-0.00895,-0.00935,0.0042));
#1320=CARTESIAN_POINT('',(0.00935,-1.7347234759768E-18,0.0042));
#1321=CARTESIAN_POINT('',(0.00935,-0.00895,0.0042));
#1322=CARTESIAN_POINT('',(0.00935,0.00895,0.));
#1323=CARTESIAN_POINT('',(-0.0031,0.,0.01));
#1324=CARTESIAN_POINT('',(-0.0031,-0.00113137084989847,0.0469573975816072));
#1325=CARTESIAN_POINT('',(-0.0031,-0.00113137084989847,0.01));
#1326=CARTESIAN_POINT('',(-0.0031,0.,0.01));
#1327=CARTESIAN_POINT('',(0.,-0.00317760505277419,0.01));
#1328=CARTESIAN_POINT('',(0.,-2.02066721859313E-19,0.01));
#1329=CARTESIAN_POINT('',(-0.00985,-0.01485,0.005));
#1330=CARTESIAN_POINT('',(-0.00985,-0.01485,0.004));
#1331=CARTESIAN_POINT('',(-0.00985,0.01485,0.005));
#1332=CARTESIAN_POINT('',(-0.00985,0.01485,0.004));
#1333=CARTESIAN_POINT('',(0.00985,0.01485,0.005));
#1334=CARTESIAN_POINT('',(0.00985,0.01485,0.0101894736842105));
#1335=CARTESIAN_POINT('',(0.00985,0.01485,0.004));
#1336=CARTESIAN_POINT('',(0.00985,-0.01485,0.005));
#1337=CARTESIAN_POINT('',(0.00985,-0.01485,0.0101894736842105));
#1338=CARTESIAN_POINT('',(0.00985,-0.01485,0.004));
#1339=CARTESIAN_POINT('',(-0.01185,0.,0.004));
#1340=CARTESIAN_POINT('',(-0.01185,-0.01485,0.004));
#1341=CARTESIAN_POINT('',(-0.00985,0.01485,0.));
#1342=CARTESIAN_POINT('',(-0.00985,0.01485,0.004));
#1343=CARTESIAN_POINT('',(-0.00985,0.01485,0.));
#1344=CARTESIAN_POINT('',(-0.00985,-0.01485,0.004));
#1345=CARTESIAN_POINT('',(-0.00985,-0.01685,0.004));
#1346=CARTESIAN_POINT('',(0.,0.01485,0.));
#1347=CARTESIAN_POINT('',(0.00985,0.01485,0.));
#1348=CARTESIAN_POINT('',(0.,-0.01685,0.004));
#1349=CARTESIAN_POINT('',(0.00985,-0.01685,0.004));
#1350=CARTESIAN_POINT('',(0.00985,0.01485,0.004));
#1351=CARTESIAN_POINT('',(0.00985,0.01485,0.));
#1352=CARTESIAN_POINT('',(0.00985,-0.01485,0.004));
#1353=CARTESIAN_POINT('',(0.01185,-0.01485,0.004));
#1354=CARTESIAN_POINT('',(0.00985,0.,0.));
#1355=CARTESIAN_POINT('',(0.00305,0.016852,0.0107));
#1356=CARTESIAN_POINT('',(0.00305,0.00125996031683542,0.0469573975816072));
#1357=CARTESIAN_POINT('',(0.,0.016852,0.0114));
#1358=CARTESIAN_POINT('',(0.,-2.02066721859313E-19,0.0114));
#1359=CARTESIAN_POINT('',(0.00275,-0.00182414363469547,0.0114));
#1360=CARTESIAN_POINT('',(0.00275,0.016852,0.0114));
#1361=CARTESIAN_POINT('',(-0.00305,0.016852,0.0107));
#1362=CARTESIAN_POINT('',(-0.00305,0.00125996031683541,0.0469573975816072));
#1363=CARTESIAN_POINT('',(-0.00305,0.00125996031683541,0.0111));
#1364=CARTESIAN_POINT('',(-0.00305,0.01685,0.0111));
#1365=CARTESIAN_POINT('',(0.00305,0.016852,0.0109));
#1366=CARTESIAN_POINT('',(0.,-2.02066721859313E-19,0.0159833333333334));
#1367=CARTESIAN_POINT('',(-0.00255,0.016852,0.0114));
#1368=CARTESIAN_POINT('',(0.,-2.02066721859313E-19,0.01293));
#1369=CARTESIAN_POINT('',(0.,-2.02066721859313E-19,0.0469573975816072));
#1370=CARTESIAN_POINT('',(0.,-2.02066721859313E-19,0.));
#1371=CARTESIAN_POINT('',(0.0033,-2.02066721859313E-19,0.));
#1372=CARTESIAN_POINT('',(0.,0.,0.));
#1373=CARTESIAN_POINT('',(0.,-4.163799117101E-19,0.));
#1374=CARTESIAN_POINT('',(0.0035,-4.163799117101E-19,0.));
#1375=CARTESIAN_POINT('',(0.,-4.163799117101E-19,-2.00000000000027E-6));
#1376=CARTESIAN_POINT('',(0.00895,-0.00895,0.0042));
#1377=CARTESIAN_POINT('',(-0.00895,-0.00895,0.0042));
#1378=CARTESIAN_POINT('',(-0.00895,0.00895,0.0042));
#1379=CARTESIAN_POINT('',(0.00895,0.00895,0.0042));
#1380=CARTESIAN_POINT('',(0.01185,0.,0.0064));
#1381=MECHANICAL_DESIGN_GEOMETRIC_PRESENTATION_REPRESENTATION('',(#819),
#1382);
#1382=(
GEOMETRIC_REPRESENTATION_CONTEXT(3)
GLOBAL_UNCERTAINTY_ASSIGNED_CONTEXT((#1383))
GLOBAL_UNIT_ASSIGNED_CONTEXT((#1386,#1385,#1384))
REPRESENTATION_CONTEXT('Part 1','TOP_LEVEL_ASSEMBLY_PART')
);
#1383=UNCERTAINTY_MEASURE_WITH_UNIT(LENGTH_MEASURE(1.E-8),#1386,
'DISTANCE_ACCURACY_VALUE','Maximum Tolerance applied to model');
#1384=(
NAMED_UNIT(*)
SI_UNIT($,.STERADIAN.)
SOLID_ANGLE_UNIT()
);
#1385=(
NAMED_UNIT(*)
PLANE_ANGLE_UNIT()
SI_UNIT($,.RADIAN.)
);
#1386=(
LENGTH_UNIT()
NAMED_UNIT(*)
SI_UNIT($,.METRE.)
);
#1387=PRODUCT_DEFINITION_SHAPE('','',#1388);
#1388=PRODUCT_DEFINITION('','',#1390,#1389);
#1389=PRODUCT_DEFINITION_CONTEXT('',#1396,'design');
#1390=PRODUCT_DEFINITION_FORMATION_WITH_SPECIFIED_SOURCE('','',#1392,
 .NOT_KNOWN.);
#1391=PRODUCT_RELATED_PRODUCT_CATEGORY('','',(#1392));
#1392=PRODUCT('Part 1','Part 1','Part 1',(#1394));
#1393=PRODUCT_CATEGORY('','');
#1394=PRODUCT_CONTEXT('',#1396,'mechanical');
#1395=APPLICATION_PROTOCOL_DEFINITION('international standard',
'ap242_managed_model_based_3d_engineering',2020,#1396);
#1396=APPLICATION_CONTEXT('managed model based 3d engineering');
ENDSEC;
END-ISO-10303-21;
